ISO-10303-21;
HEADER;
FILE_DESCRIPTION (( 'STEP AP203' ),
    '1' );
FILE_NAME ('barra_agitadora_1.STEP',
    '2026-07-30T16:41:33',
    ( '' ),
    ( '' ),
    'SwSTEP 2.0',
    'SolidWorks 2026',
    '' );
FILE_SCHEMA (( 'CONFIG_CONTROL_DESIGN' ));
ENDSEC;

DATA;
#1 = MECHANICAL_CONTEXT ( 'NONE', #196, 'mechanical' ) ;
#2 = COORDINATED_UNIVERSAL_TIME_OFFSET ( 3, 0, .BEHIND. ) ;
#3 = DIRECTION ( 'NONE',  ( 0.000000000000000000, 0.000000000000000000, 1.000000000000000000 ) ) ;
#4 = EDGE_CURVE ( 'NONE', #147, #353, #363, .T. ) ;
#5 = CYLINDRICAL_SURFACE ( 'NONE', #167, 1.500000000000000222 ) ;
#6 = AXIS2_PLACEMENT_3D ( 'NONE', #305, #306, #39 ) ;
#7 = CC_DESIGN_PERSON_AND_ORGANIZATION_ASSIGNMENT ( #181, #38, ( #139 ) ) ;
#8 = APPLICATION_PROTOCOL_DEFINITION ( 'international standard', 'config_control_design', 1994, #198 ) ;
#9 = DIRECTION ( 'NONE',  ( 0.000000000000000000, 0.000000000000000000, 1.000000000000000000 ) ) ;
#10 = VERTEX_POINT ( 'NONE', #138 ) ;
#11 = COORDINATED_UNIVERSAL_TIME_OFFSET ( 3, 0, .BEHIND. ) ;
#12 = FACE_OUTER_BOUND ( 'NONE', #25, .T. ) ;
#13 = ORIENTED_EDGE ( 'NONE', *, *, #164, .T. ) ;
#14 = CC_DESIGN_DATE_AND_TIME_ASSIGNMENT ( #328, #377, ( #392 ) ) ;
#15 = CIRCLE ( 'NONE', #112, 1.650000000000000133 ) ;
#16 = ORIENTED_EDGE ( 'NONE', *, *, #223, .T. ) ;
#17 = DIRECTION ( 'NONE',  ( 0.000000000000000000, 0.000000000000000000, -1.000000000000000000 ) ) ;
#18 = CARTESIAN_POINT ( 'NONE',  ( -13.70809924354782972, 0.000000000000000000, 0.000000000000000000 ) ) ;
#19 = AXIS2_PLACEMENT_3D ( 'NONE', #93, #207, #325 ) ;
#20 = ORIENTED_EDGE ( 'NONE', *, *, #223, .F. ) ;
#21 = ORIENTED_EDGE ( 'NONE', *, *, #350, .T. ) ;
#22 = CARTESIAN_POINT ( 'NONE',  ( -12.00000000000000000, 2.020667218593133001E-16, 1.650000000000000133 ) ) ;
#23 = ORIENTED_EDGE ( 'NONE', *, *, #45, .T. ) ;
#24 = CARTESIAN_POINT ( 'NONE',  ( -12.00000000000000000, 0.000000000000000000, -1.650000000000000133 ) ) ;
#25 = EDGE_LOOP ( 'NONE', ( #257, #388 ) ) ;
#26 = CARTESIAN_POINT ( 'NONE',  ( 8.999999999999998224, 2.020667218593133001E-16, 1.650000000000000133 ) ) ;
#27 = DIRECTION ( 'NONE',  ( -1.000000000000000000, 0.000000000000000000, 0.000000000000000000 ) ) ;
#28 = VECTOR ( 'NONE', #217, 1000.000000000000000 ) ;
#29 = CALENDAR_DATE ( 2026, 30, 7 ) ;
#30 = DIRECTION ( 'NONE',  ( 1.000000000000000000, 0.000000000000000000, 0.000000000000000000 ) ) ;
#31 = DATE_AND_TIME ( #307, #271 ) ;
#32 = CARTESIAN_POINT ( 'NONE',  ( -14.00099999999999767, 1.836970198721030181E-16, 1.500000000000000222 ) ) ;
#33 = EDGE_CURVE ( 'NONE', #233, #381, #291, .T. ) ;
#34 = CARTESIAN_POINT ( 'NONE',  ( 8.999999999999998224, 0.000000000000000000, 0.000000000000000000 ) ) ;
#35 = DIRECTION ( 'NONE',  ( 0.000000000000000000, 1.000000000000000000, -0.000000000000000000 ) ) ;
#36 = AXIS2_PLACEMENT_3D ( 'NONE', #352, #105, #76 ) ;
#37 = LOCAL_TIME ( 13, 41, 33.00000000000000000, #371 ) ;
#38 = PERSON_AND_ORGANIZATION_ROLE ( 'creator' ) ;
#39 = DIRECTION ( 'NONE',  ( 0.000000000000000000, 0.000000000000000000, -1.000000000000000000 ) ) ;
#40 = EDGE_LOOP ( 'NONE', ( #342, #260, #265, #168 ) ) ;
#41 = AXIS2_PLACEMENT_3D ( 'NONE', #131, #244, #96 ) ;
#42 = ADVANCED_BREP_SHAPE_REPRESENTATION ( 'barra_agitadora_1', ( #132, #355 ), #158 ) ;
#43 = ORIENTED_EDGE ( 'NONE', *, *, #219, .F. ) ;
#44 = CYLINDRICAL_SURFACE ( 'NONE', #197, 1.650000000000000133 ) ;
#45 = EDGE_CURVE ( 'NONE', #137, #381, #253, .T. ) ;
#46 = PLANE ( 'NONE',  #245 ) ;
#47 = VERTEX_POINT ( 'NONE', #141 ) ;
#48 = CIRCLE ( 'NONE', #150, 1.650000000000000133 ) ;
#49 = EDGE_LOOP ( 'NONE', ( #83, #129, #100, #86 ) ) ;
#50 = CARTESIAN_POINT ( 'NONE',  ( 10.00000000000000178, 0.000000000000000000, 0.000000000000000000 ) ) ;
#51 = VERTEX_POINT ( 'NONE', #104 ) ;
#52 = ADVANCED_FACE ( 'NONE', ( #259, #84 ), #46, .T. ) ;
#53 = CYLINDRICAL_SURFACE ( 'NONE', #215, 1.500000000000000222 ) ;
#54 = DIRECTION ( 'NONE',  ( 0.000000000000000000, 0.000000000000000000, -1.000000000000000000 ) ) ;
#55 = ORIENTED_EDGE ( 'NONE', *, *, #45, .F. ) ;
#56 = LOCAL_TIME ( 13, 41, 33.00000000000000000, #211 ) ;
#57 = CARTESIAN_POINT ( 'NONE',  ( -26.84179068806064805, 4.898587196589412829E-16, -4.000000000000000000 ) ) ;
#58 = CARTESIAN_POINT ( 'NONE',  ( -13.70809924354782972, 0.000000000000000000, 0.000000000000000000 ) ) ;
#59 = DIRECTION ( 'NONE',  ( 1.000000000000000000, 0.000000000000000000, 0.000000000000000000 ) ) ;
#60 = CIRCLE ( 'NONE', #101, 1.650000000000000133 ) ;
#61 = EDGE_CURVE ( 'NONE', #221, #51, #202, .T. ) ;
#62 = DIRECTION ( 'NONE',  ( 0.000000000000000000, 0.000000000000000000, 1.000000000000000000 ) ) ;
#63 = DIRECTION ( 'NONE',  ( 1.000000000000000000, -0.000000000000000000, -0.000000000000000000 ) ) ;
#64 = FACE_BOUND ( 'NONE', #70, .T. ) ;
#65 = SECURITY_CLASSIFICATION_LEVEL ( 'unclassified' ) ;
#66 = LINE ( 'NONE', #214, #399 ) ;
#67 = AXIS2_PLACEMENT_3D ( 'NONE', #110, #378, #376 ) ;
#68 = CARTESIAN_POINT ( 'NONE',  ( -12.00000000000000000, 0.000000000000000000, -1.650000000000000133 ) ) ;
#69 = APPROVAL_PERSON_ORGANIZATION ( #92, #252, #120 ) ;
#70 = EDGE_LOOP ( 'NONE', ( #134, #23 ) ) ;
#71 = CARTESIAN_POINT ( 'NONE',  ( -12.00000000000000000, 0.000000000000000000, -1.500000000000000222 ) ) ;
#72 = ORIENTED_EDGE ( 'NONE', *, *, #262, .F. ) ;
#73 = APPLICATION_PROTOCOL_DEFINITION ( 'international standard', 'config_control_design', 1994, #196 ) ;
#74 = ORIENTED_EDGE ( 'NONE', *, *, #33, .T. ) ;
#75 = ADVANCED_FACE ( 'NONE', ( #227 ), #44, .F. ) ;
#76 = DIRECTION ( 'NONE',  ( 0.000000000000000000, 0.000000000000000000, 1.000000000000000000 ) ) ;
#77 = UNCERTAINTY_MEASURE_WITH_UNIT (LENGTH_MEASURE( 1.000000000000000082E-05 ), #193, 'distance_accuracy_value', 'NONE');
#78 = AXIS2_PLACEMENT_3D ( 'NONE', #361, #266, #389 ) ;
#79 = ORIENTED_EDGE ( 'NONE', *, *, #226, .F. ) ;
#80 = APPROVAL ( #130, 'UNSPECIFIED' ) ;
#81 = EDGE_LOOP ( 'NONE', ( #109, #362 ) ) ;
#82 = DIRECTION ( 'NONE',  ( 1.000000000000000000, -0.000000000000000000, -0.000000000000000000 ) ) ;
#83 = ORIENTED_EDGE ( 'NONE', *, *, #108, .F. ) ;
#84 = FACE_OUTER_BOUND ( 'NONE', #81, .T. ) ;
#85 = AXIS2_PLACEMENT_3D ( 'NONE', #180, #116, #401 ) ;
#86 = ORIENTED_EDGE ( 'NONE', *, *, #164, .F. ) ;
#87 = DIRECTION ( 'NONE',  ( 0.000000000000000000, 0.000000000000000000, -1.000000000000000000 ) ) ;
#88 = CARTESIAN_POINT ( 'NONE',  ( -12.00000000000000000, 0.000000000000000000, 0.000000000000000000 ) ) ;
#89 = CARTESIAN_POINT ( 'NONE',  ( -14.00099999999999767, 0.000000000000000000, 0.000000000000000000 ) ) ;
#90 = VECTOR ( 'NONE', #344, 1000.000000000000114 ) ;
#91 = DIRECTION ( 'NONE',  ( -1.000000000000000000, -0.000000000000000000, -0.000000000000000000 ) ) ;
#92 = PERSON_AND_ORGANIZATION ( #102, #315 ) ;
#93 = CARTESIAN_POINT ( 'NONE',  ( 8.999999999999998224, 0.000000000000000000, 0.000000000000000000 ) ) ;
#94 = DIRECTION ( 'NONE',  ( 0.000000000000000000, 0.000000000000000000, 1.000000000000000000 ) ) ;
#95 = VECTOR ( 'NONE', #154, 1000.000000000000000 ) ;
#96 = DIRECTION ( 'NONE',  ( 0.000000000000000000, 0.000000000000000000, -1.000000000000000000 ) ) ;
#97 = LINE ( 'NONE', #68, #382 ) ;
#98 = DATE_TIME_ROLE ( 'creation_date' ) ;
#99 = ADVANCED_FACE ( 'NONE', ( #172 ), #53, .F. ) ;
#100 = ORIENTED_EDGE ( 'NONE', *, *, #316, .T. ) ;
#101 = AXIS2_PLACEMENT_3D ( 'NONE', #88, #59, #320 ) ;
#102 = PERSON ( 'UNSPECIFIED', 'UNSPECIFIED', 'UNSPECIFIED', ('UNSPECIFIED'), ('UNSPECIFIED'), ('UNSPECIFIED') ) ;
#103 = ORIENTED_EDGE ( 'NONE', *, *, #276, .T. ) ;
#104 = CARTESIAN_POINT ( 'NONE',  ( 10.00000000000000178, 0.000000000000000000, 4.000000000000000000 ) ) ;
#105 = DIRECTION ( 'NONE',  ( -1.000000000000000000, -0.000000000000000000, -0.000000000000000000 ) ) ;
#106 = AXIS2_PLACEMENT_3D ( 'NONE', #251, #152, #242 ) ;
#107 = DIRECTION ( 'NONE',  ( -1.000000000000000000, -0.000000000000000000, -0.000000000000000000 ) ) ;
#108 = EDGE_CURVE ( 'NONE', #47, #353, #231, .T. ) ;
#109 = ORIENTED_EDGE ( 'NONE', *, *, #262, .T. ) ;
#110 = CARTESIAN_POINT ( 'NONE',  ( -12.00000000000000000, 0.000000000000000000, 0.000000000000000000 ) ) ;
#111 = DIRECTION ( 'NONE',  ( 0.000000000000000000, 0.000000000000000000, 1.000000000000000000 ) ) ;
#112 = AXIS2_PLACEMENT_3D ( 'NONE', #302, #30, #261 ) ;
#113 = VERTEX_POINT ( 'NONE', #235 ) ;
#114 = DIRECTION ( 'NONE',  ( 1.000000000000000000, -0.000000000000000000, -0.000000000000000000 ) ) ;
#115 = EDGE_CURVE ( 'NONE', #169, #233, #133, .T. ) ;
#116 = DIRECTION ( 'NONE',  ( 1.000000000000000000, -0.000000000000000000, -0.000000000000000000 ) ) ;
#117 = DIRECTION ( 'NONE',  ( -0.000000000000000000, -1.000000000000000000, -0.000000000000000000 ) ) ;
#118 = AXIS2_PLACEMENT_3D ( 'NONE', #264, #117, #87 ) ;
#119 = DIRECTION ( 'NONE',  ( 0.000000000000000000, 0.000000000000000000, 1.000000000000000000 ) ) ;
#120 = APPROVAL_ROLE ( '' ) ;
#121 =( NAMED_UNIT ( * ) PLANE_ANGLE_UNIT ( ) SI_UNIT ( $, .RADIAN. ) );
#122 = CC_DESIGN_PERSON_AND_ORGANIZATION_ASSIGNMENT ( #153, #369, ( #330 ) ) ;
#123 = DATE_AND_TIME ( #127, #286 ) ;
#124 = FACE_OUTER_BOUND ( 'NONE', #224, .T. ) ;
#125 = AXIS2_PLACEMENT_3D ( 'NONE', #327, #269, #119 ) ;
#126 = SPHERICAL_SURFACE ( 'NONE', #208, 4.000000000000000000 ) ;
#127 = CALENDAR_DATE ( 2026, 30, 7 ) ;
#128 = FACE_OUTER_BOUND ( 'NONE', #40, .T. ) ;
#129 = ORIENTED_EDGE ( 'NONE', *, *, #144, .T. ) ;
#130 = APPROVAL_STATUS ( 'not_yet_approved' ) ;
#131 = CARTESIAN_POINT ( 'NONE',  ( -12.00000000000000000, 0.000000000000000000, 0.000000000000000000 ) ) ;
#132 = MANIFOLD_SOLID_BREP ( 'Cortar-Extruir2', #340 ) ;
#133 = CIRCLE ( 'NONE', #19, 1.650000000000000133 ) ;
#134 = ORIENTED_EDGE ( 'NONE', *, *, #219, .T. ) ;
#135 = DIRECTION ( 'NONE',  ( 0.000000000000000000, 0.000000000000000000, 1.000000000000000000 ) ) ;
#136 = EDGE_CURVE ( 'NONE', #221, #359, #205, .T. ) ;
#137 = VERTEX_POINT ( 'NONE', #212 ) ;
#138 = CARTESIAN_POINT ( 'NONE',  ( -12.00000000000000000, 1.836970198721030181E-16, 1.500000000000000222 ) ) ;
#139 = PRODUCT_DEFINITION_FORMATION_WITH_SPECIFIED_SOURCE ( 'ANY', '', #321, .NOT_KNOWN. ) ;
#140 = ORIENTED_EDGE ( 'NONE', *, *, #357, .T. ) ;
#141 = CARTESIAN_POINT ( 'NONE',  ( -9.999999999999998224, -4.898587196589413815E-16, 4.000000000000000000 ) ) ;
#142 = ORIENTED_EDGE ( 'NONE', *, *, #326, .F. ) ;
#143 = DIRECTION ( 'NONE',  ( 0.000000000000000000, 0.000000000000000000, -1.000000000000000000 ) ) ;
#144 = EDGE_CURVE ( 'NONE', #47, #359, #290, .T. ) ;
#145 = PRODUCT_DEFINITION_SHAPE ( 'NONE', 'NONE',  #330 ) ;
#146 = LINE ( 'NONE', #26, #373 ) ;
#147 = VERTEX_POINT ( 'NONE', #358 ) ;
#148 = CARTESIAN_POINT ( 'NONE',  ( 8.999999999999998224, 2.020667218593133001E-16, 1.650000000000000133 ) ) ;
#149 = LINE ( 'NONE', #22, #183 ) ;
#150 = AXIS2_PLACEMENT_3D ( 'NONE', #34, #335, #9 ) ;
#151 = APPROVAL_DATE_TIME ( #188, #80 ) ;
#152 = DIRECTION ( 'NONE',  ( -1.000000000000000000, 0.000000000000000000, -0.000000000000000000 ) ) ;
#153 = PERSON_AND_ORGANIZATION ( #102, #315 ) ;
#154 = DIRECTION ( 'NONE',  ( 1.000000000000000000, -0.000000000000000000, -0.000000000000000000 ) ) ;
#155 = APPROVAL_STATUS ( 'not_yet_approved' ) ;
#156 = PLANE ( 'NONE',  #106 ) ;
#157 = AXIS2_PLACEMENT_3D ( 'NONE', #322, #232, #182 ) ;
#158 =( GEOMETRIC_REPRESENTATION_CONTEXT ( 3 ) GLOBAL_UNCERTAINTY_ASSIGNED_CONTEXT ( ( #77 ) ) GLOBAL_UNIT_ASSIGNED_CONTEXT ( ( #193, #121, #317 ) ) REPRESENTATION_CONTEXT ( 'NONE', 'WORKASPACE' ) );
#159 = APPROVAL_ROLE ( '' ) ;
#160 = CARTESIAN_POINT ( 'NONE',  ( -13.70809924354782972, -3.367778697655221012E-16, 1.500000000000000222 ) ) ;
#161 = PERSON_AND_ORGANIZATION_ROLE ( 'design_owner' ) ;
#162 = LINE ( 'NONE', #308, #28 ) ;
#163 = ORIENTED_EDGE ( 'NONE', *, *, #281, .F. ) ;
#164 = EDGE_CURVE ( 'NONE', #353, #147, #379, .T. ) ;
#165 = ORIENTED_EDGE ( 'NONE', *, *, #194, .T. ) ;
#166 = AXIS2_PLACEMENT_3D ( 'NONE', #186, #35, #94 ) ;
#167 = AXIS2_PLACEMENT_3D ( 'NONE', #247, #337, #218 ) ;
#168 = ORIENTED_EDGE ( 'NONE', *, *, #276, .F. ) ;
#169 = VERTEX_POINT ( 'NONE', #148 ) ;
#170 = AXIS2_PLACEMENT_3D ( 'NONE', #300, #91, #111 ) ;
#171 = EDGE_LOOP ( 'NONE', ( #163, #142 ) ) ;
#172 = FACE_OUTER_BOUND ( 'NONE', #294, .T. ) ;
#173 = ADVANCED_FACE ( 'NONE', ( #329 ), #240, .F. ) ;
#174 = DIRECTION ( 'NONE',  ( 0.000000000000000000, 0.000000000000000000, -1.000000000000000000 ) ) ;
#175 = PRODUCT_RELATED_PRODUCT_CATEGORY ( 'detail', '', ( #321 ) ) ;
#176 = CIRCLE ( 'NONE', #166, 4.000000000000000000 ) ;
#177 = ORIENTED_EDGE ( 'NONE', *, *, #194, .F. ) ;
#178 = DIRECTION ( 'NONE',  ( -1.000000000000000000, -0.000000000000000000, -0.000000000000000000 ) ) ;
#179 = EDGE_CURVE ( 'NONE', #113, #250, #60, .T. ) ;
#180 = CARTESIAN_POINT ( 'NONE',  ( -12.00000000000000000, 0.000000000000000000, 0.000000000000000000 ) ) ;
#181 = PERSON_AND_ORGANIZATION ( #102, #315 ) ;
#182 = DIRECTION ( 'NONE',  ( 0.000000000000000000, 0.000000000000000000, 1.000000000000000000 ) ) ;
#183 = VECTOR ( 'NONE', #114, 1000.000000000000000 ) ;
#184 = CC_DESIGN_SECURITY_CLASSIFICATION ( #392, ( #139 ) ) ;
#185 = PERSON_AND_ORGANIZATION ( #102, #315 ) ;
#186 = CARTESIAN_POINT ( 'NONE',  ( -9.999999999999998224, 0.000000000000000000, -3.851859888774471706E-31 ) ) ;
#187 = FACE_OUTER_BOUND ( 'NONE', #395, .T. ) ;
#188 = DATE_AND_TIME ( #29, #37 ) ;
#189 = CARTESIAN_POINT ( 'NONE',  ( -9.999999999999998224, 0.000000000000000000, -4.000000000000000000 ) ) ;
#190 = CONICAL_SURFACE ( 'NONE', #270, 1.650000000000000133, 0.7853981633974509435 ) ;
#191 = PERSON_AND_ORGANIZATION ( #102, #315 ) ;
#192 = CARTESIAN_POINT ( 'NONE',  ( -26.84179068806064805, 0.000000000000000000, 0.000000000000000000 ) ) ;
#193 =( LENGTH_UNIT ( ) NAMED_UNIT ( * ) SI_UNIT ( .MILLI., .METRE. ) );
#194 = EDGE_CURVE ( 'NONE', #359, #47, #354, .T. ) ;
#195 = CARTESIAN_POINT ( 'NONE',  ( 8.999999999999998224, 0.000000000000000000, -1.650000000000000133 ) ) ;
#196 = APPLICATION_CONTEXT ( 'configuration controlled 3d designs of mechanical parts and assemblies' ) ;
#197 = AXIS2_PLACEMENT_3D ( 'NONE', #349, #82, #54 ) ;
#198 = APPLICATION_CONTEXT ( 'configuration controlled 3d designs of mechanical parts and assemblies' ) ;
#199 = ORIENTED_EDGE ( 'NONE', *, *, #326, .T. ) ;
#200 = ORIENTED_EDGE ( 'NONE', *, *, #357, .F. ) ;
#201 = ORIENTED_EDGE ( 'NONE', *, *, #313, .T. ) ;
#202 = CIRCLE ( 'NONE', #314, 4.000000000000000000 ) ;
#203 = ORIENTED_EDGE ( 'NONE', *, *, #298, .F. ) ;
#204 = ORIENTED_EDGE ( 'NONE', *, *, #136, .F. ) ;
#205 = LINE ( 'NONE', #57, #225 ) ;
#206 = EDGE_LOOP ( 'NONE', ( #287, #390, #380, #285 ) ) ;
#207 = DIRECTION ( 'NONE',  ( 1.000000000000000000, 0.000000000000000000, 0.000000000000000000 ) ) ;
#208 = AXIS2_PLACEMENT_3D ( 'NONE', #273, #280, #249 ) ;
#209 = DIRECTION ( 'NONE',  ( 1.000000000000000000, 0.000000000000000000, 0.000000000000000000 ) ) ;
#210 = ADVANCED_FACE ( 'NONE', ( #295 ), #368, .T. ) ;
#211 = COORDINATED_UNIVERSAL_TIME_OFFSET ( 3, 0, .BEHIND. ) ;
#212 = CARTESIAN_POINT ( 'NONE',  ( 9.999999999999998224, 3.245314017740493851E-16, 2.650000000000006573 ) ) ;
#213 = PERSON_AND_ORGANIZATION_ROLE ( 'design_supplier' ) ;
#214 = CARTESIAN_POINT ( 'NONE',  ( -14.00099999999999767, 0.000000000000000000, -1.500000000000000222 ) ) ;
#215 = AXIS2_PLACEMENT_3D ( 'NONE', #89, #297, #234 ) ;
#216 = CYLINDRICAL_SURFACE ( 'NONE', #345, 4.000000000000000000 ) ;
#217 = DIRECTION ( 'NONE',  ( -1.000000000000000000, -0.000000000000000000, -0.000000000000000000 ) ) ;
#218 = DIRECTION ( 'NONE',  ( 0.000000000000000000, 0.000000000000000000, -1.000000000000000000 ) ) ;
#219 = EDGE_CURVE ( 'NONE', #381, #137, #284, .T. ) ;
#220 = AXIS2_PLACEMENT_3D ( 'NONE', #192, #310, #3 ) ;
#221 = VERTEX_POINT ( 'NONE', #299 ) ;
#222 = FACE_OUTER_BOUND ( 'NONE', #255, .T. ) ;
#223 = EDGE_CURVE ( 'NONE', #169, #137, #146, .T. ) ;
#224 = EDGE_LOOP ( 'NONE', ( #20, #200, #74, #55 ) ) ;
#225 = VECTOR ( 'NONE', #178, 1000.000000000000000 ) ;
#226 = EDGE_CURVE ( 'NONE', #113, #169, #149, .T. ) ;
#227 = FACE_OUTER_BOUND ( 'NONE', #206, .T. ) ;
#228 = ORIENTED_EDGE ( 'NONE', *, *, #316, .F. ) ;
#229 = DIRECTION ( 'NONE',  ( 0.000000000000000000, 0.000000000000000000, -1.000000000000000000 ) ) ;
#230 = ORIENTED_EDGE ( 'NONE', *, *, #33, .F. ) ;
#231 = CIRCLE ( 'NONE', #278, 4.000000000000000000 ) ;
#232 = DIRECTION ( 'NONE',  ( -1.000000000000000000, -0.000000000000000000, -0.000000000000000000 ) ) ;
#233 = VERTEX_POINT ( 'NONE', #356 ) ;
#234 = DIRECTION ( 'NONE',  ( 0.000000000000000000, 0.000000000000000000, -1.000000000000000000 ) ) ;
#235 = CARTESIAN_POINT ( 'NONE',  ( -12.00000000000000000, 2.020667218593133001E-16, 1.650000000000000133 ) ) ;
#236 = EDGE_LOOP ( 'NONE', ( #296, #16, #43, #230 ) ) ;
#237 = DIRECTION ( 'NONE',  ( 0.000000000000000000, 1.224646799147353207E-16, -1.000000000000000000 ) ) ;
#238 = CIRCLE ( 'NONE', #125, 4.000000000000000000 ) ;
#239 = CC_DESIGN_APPROVAL ( #80, ( #392 ) ) ;
#240 = CYLINDRICAL_SURFACE ( 'NONE', #85, 1.650000000000000133 ) ;
#241 = CALENDAR_DATE ( 2026, 30, 7 ) ;
#242 = DIRECTION ( 'NONE',  ( -0.000000000000000000, 0.000000000000000000, 1.000000000000000000 ) ) ;
#243 = PERSON_AND_ORGANIZATION ( #102, #315 ) ;
#244 = DIRECTION ( 'NONE',  ( 1.000000000000000000, 0.000000000000000000, 0.000000000000000000 ) ) ;
#245 = AXIS2_PLACEMENT_3D ( 'NONE', #319, #347, #17 ) ;
#246 = ADVANCED_FACE ( 'NONE', ( #268 ), #190, .F. ) ;
#247 = CARTESIAN_POINT ( 'NONE',  ( -14.00099999999999767, 0.000000000000000000, 0.000000000000000000 ) ) ;
#248 = APPROVAL_DATE_TIME ( #123, #288 ) ;
#249 = DIRECTION ( 'NONE',  ( 0.000000000000000000, 0.000000000000000000, -1.000000000000000000 ) ) ;
#250 = VERTEX_POINT ( 'NONE', #24 ) ;
#251 = CARTESIAN_POINT ( 'NONE',  ( 9.999999999999998224, 0.000000000000000000, -4.000000000000000000 ) ) ;
#252 = APPROVAL ( #367, 'UNSPECIFIED' ) ;
#253 = CIRCLE ( 'NONE', #36, 2.650000000000006573 ) ;
#254 = ORIENTED_EDGE ( 'NONE', *, *, #108, .T. ) ;
#255 = EDGE_LOOP ( 'NONE', ( #267, #13, #258, #351 ) ) ;
#256 = EDGE_CURVE ( 'NONE', #51, #221, #238, .T. ) ;
#257 = ORIENTED_EDGE ( 'NONE', *, *, #256, .F. ) ;
#258 = ORIENTED_EDGE ( 'NONE', *, *, #298, .T. ) ;
#259 = FACE_BOUND ( 'NONE', #171, .T. ) ;
#260 = ORIENTED_EDGE ( 'NONE', *, *, #136, .T. ) ;
#261 = DIRECTION ( 'NONE',  ( 0.000000000000000000, 0.000000000000000000, -1.000000000000000000 ) ) ;
#262 = EDGE_CURVE ( 'NONE', #250, #113, #15, .T. ) ;
#263 = AXIS2_PLACEMENT_3D ( 'NONE', #58, #27, #143 ) ;
#264 = CARTESIAN_POINT ( 'NONE',  ( -9.999999999999998224, 0.000000000000000000, -3.851859888774471706E-31 ) ) ;
#265 = ORIENTED_EDGE ( 'NONE', *, *, #144, .F. ) ;
#266 = DIRECTION ( 'NONE',  ( -1.000000000000000000, -0.000000000000000000, -0.000000000000000000 ) ) ;
#267 = ORIENTED_EDGE ( 'NONE', *, *, #350, .F. ) ;
#268 = FACE_OUTER_BOUND ( 'NONE', #236, .T. ) ;
#269 = DIRECTION ( 'NONE',  ( -1.000000000000000000, -0.000000000000000000, -0.000000000000000000 ) ) ;
#270 = AXIS2_PLACEMENT_3D ( 'NONE', #364, #209, #174 ) ;
#271 = LOCAL_TIME ( 13, 41, 33.00000000000000000, #11 ) ;
#272 = SHAPE_DEFINITION_REPRESENTATION ( #145, #42 ) ;
#273 = CARTESIAN_POINT ( 'NONE',  ( -9.999999999999998224, 0.000000000000000000, -3.851859888774471706E-31 ) ) ;
#274 = CALENDAR_DATE ( 2026, 30, 7 ) ;
#275 = FACE_OUTER_BOUND ( 'NONE', #348, .T. ) ;
#276 = EDGE_CURVE ( 'NONE', #51, #47, #162, .T. ) ;
#277 = CARTESIAN_POINT ( 'NONE',  ( 9.999999999999998224, 0.000000000000000000, -2.650000000000006573 ) ) ;
#278 = AXIS2_PLACEMENT_3D ( 'NONE', #396, #398, #237 ) ;
#279 = DATE_AND_TIME ( #274, #384 ) ;
#280 = DIRECTION ( 'NONE',  ( -0.000000000000000000, -1.000000000000000000, -0.000000000000000000 ) ) ;
#281 = EDGE_CURVE ( 'NONE', #397, #10, #333, .T. ) ;
#282 = APPROVAL_DATE_TIME ( #279, #252 ) ;
#283 = LINE ( 'NONE', #32, #95 ) ;
#284 = CIRCLE ( 'NONE', #157, 2.650000000000006573 ) ;
#285 = ORIENTED_EDGE ( 'NONE', *, *, #313, .F. ) ;
#286 = LOCAL_TIME ( 13, 41, 33.00000000000000000, #2 ) ;
#287 = ORIENTED_EDGE ( 'NONE', *, *, #179, .F. ) ;
#288 = APPROVAL ( #155, 'UNSPECIFIED' ) ;
#289 = CONICAL_SURFACE ( 'NONE', #6, 1.650000000000000133, 0.7853981633974509435 ) ;
#290 = CIRCLE ( 'NONE', #78, 4.000000000000000888 ) ;
#291 = LINE ( 'NONE', #195, #90 ) ;
#292 = ORIENTED_EDGE ( 'NONE', *, *, #4, .F. ) ;
#293 = DIRECTION ( 'NONE',  ( -1.000000000000000000, 0.000000000000000000, 0.000000000000000000 ) ) ;
#294 = EDGE_LOOP ( 'NONE', ( #318, #21, #199, #203 ) ) ;
#295 = FACE_OUTER_BOUND ( 'NONE', #49, .T. ) ;
#296 = ORIENTED_EDGE ( 'NONE', *, *, #115, .F. ) ;
#297 = DIRECTION ( 'NONE',  ( 1.000000000000000000, -0.000000000000000000, -0.000000000000000000 ) ) ;
#298 = EDGE_CURVE ( 'NONE', #147, #397, #66, .T. ) ;
#299 = CARTESIAN_POINT ( 'NONE',  ( 10.00000000000000178, 4.898587196589412829E-16, -4.000000000000000000 ) ) ;
#300 = CARTESIAN_POINT ( 'NONE',  ( -9.999999999999998224, 0.000000000000000000, 0.000000000000000000 ) ) ;
#301 = PERSON_AND_ORGANIZATION_ROLE ( 'classification_officer' ) ;
#302 = CARTESIAN_POINT ( 'NONE',  ( -12.00000000000000000, 0.000000000000000000, 0.000000000000000000 ) ) ;
#303 = CC_DESIGN_APPROVAL ( #252, ( #330 ) ) ;
#304 = PERSON_AND_ORGANIZATION ( #102, #315 ) ;
#305 = CARTESIAN_POINT ( 'NONE',  ( 8.999999999999998224, 0.000000000000000000, 0.000000000000000000 ) ) ;
#306 = DIRECTION ( 'NONE',  ( 1.000000000000000000, 0.000000000000000000, 0.000000000000000000 ) ) ;
#307 = CALENDAR_DATE ( 2026, 30, 7 ) ;
#308 = CARTESIAN_POINT ( 'NONE',  ( -26.84179068806064805, 0.000000000000000000, 4.000000000000000000 ) ) ;
#309 = COORDINATED_UNIVERSAL_TIME_OFFSET ( 3, 0, .BEHIND. ) ;
#310 = DIRECTION ( 'NONE',  ( -1.000000000000000000, -0.000000000000000000, -0.000000000000000000 ) ) ;
#311 = ADVANCED_FACE ( 'NONE', ( #128 ), #216, .T. ) ;
#312 = CARTESIAN_POINT ( 'NONE',  ( 0.000000000000000000, 0.000000000000000000, 0.000000000000000000 ) ) ;
#313 = EDGE_CURVE ( 'NONE', #250, #233, #97, .T. ) ;
#314 = AXIS2_PLACEMENT_3D ( 'NONE', #50, #107, #135 ) ;
#315 = ORGANIZATION ( 'UNSPECIFIED', 'UNSPECIFIED', '' ) ;
#316 = EDGE_CURVE ( 'NONE', #359, #147, #176, .T. ) ;
#317 =( NAMED_UNIT ( * ) SI_UNIT ( $, .STERADIAN. ) SOLID_ANGLE_UNIT ( ) );
#318 = ORIENTED_EDGE ( 'NONE', *, *, #4, .T. ) ;
#319 = CARTESIAN_POINT ( 'NONE',  ( -12.00000000000000000, 0.000000000000000000, 0.000000000000000000 ) ) ;
#320 = DIRECTION ( 'NONE',  ( 0.000000000000000000, 0.000000000000000000, -1.000000000000000000 ) ) ;
#321 = PRODUCT ( 'barra_agitadora_1', 'barra_agitadora_1', '', ( #1 ) ) ;
#322 = CARTESIAN_POINT ( 'NONE',  ( 9.999999999999998224, 0.000000000000000000, 0.000000000000000000 ) ) ;
#323 = ADVANCED_FACE ( 'NONE', ( #124 ), #289, .F. ) ;
#324 = AXIS2_PLACEMENT_3D ( 'NONE', #18, #293, #229 ) ;
#325 = DIRECTION ( 'NONE',  ( 0.000000000000000000, 0.000000000000000000, 1.000000000000000000 ) ) ;
#326 = EDGE_CURVE ( 'NONE', #10, #397, #391, .T. ) ;
#327 = CARTESIAN_POINT ( 'NONE',  ( 10.00000000000000178, 0.000000000000000000, 0.000000000000000000 ) ) ;
#328 = DATE_AND_TIME ( #241, #56 ) ;
#329 = FACE_OUTER_BOUND ( 'NONE', #383, .T. ) ;
#330 = PRODUCT_DEFINITION ( 'UNKNOWN', '', #139, #386 ) ;
#331 = PERSON_AND_ORGANIZATION ( #102, #315 ) ;
#332 = DIRECTION ( 'NONE',  ( 0.000000000000000000, 0.000000000000000000, 1.000000000000000000 ) ) ;
#333 = CIRCLE ( 'NONE', #67, 1.500000000000000222 ) ;
#334 = APPROVAL_ROLE ( '' ) ;
#335 = DIRECTION ( 'NONE',  ( 1.000000000000000000, 0.000000000000000000, 0.000000000000000000 ) ) ;
#336 = DIRECTION ( 'NONE',  ( 1.000000000000000000, 0.000000000000000000, 0.000000000000000000 ) ) ;
#337 = DIRECTION ( 'NONE',  ( 1.000000000000000000, -0.000000000000000000, -0.000000000000000000 ) ) ;
#338 = ADVANCED_FACE ( 'NONE', ( #275 ), #341, .T. ) ;
#339 = CARTESIAN_POINT ( 'NONE',  ( -26.84179068806064805, 0.000000000000000000, 0.000000000000000000 ) ) ;
#340 = CLOSED_SHELL ( 'NONE', ( #99, #246, #75, #311, #375, #210, #338, #366, #173, #52, #323, #385 ) ) ;
#341 = CYLINDRICAL_SURFACE ( 'NONE', #220, 4.000000000000000000 ) ;
#342 = ORIENTED_EDGE ( 'NONE', *, *, #256, .T. ) ;
#343 = CC_DESIGN_PERSON_AND_ORGANIZATION_ASSIGNMENT ( #304, #213, ( #139 ) ) ;
#344 = DIRECTION ( 'NONE',  ( 0.7071067811865456854, 0.000000000000000000, -0.7071067811865493491 ) ) ;
#345 = AXIS2_PLACEMENT_3D ( 'NONE', #339, #370, #332 ) ;
#346 = ORIENTED_EDGE ( 'NONE', *, *, #61, .T. ) ;
#347 = DIRECTION ( 'NONE',  ( 1.000000000000000000, 0.000000000000000000, 0.000000000000000000 ) ) ;
#348 = EDGE_LOOP ( 'NONE', ( #204, #346, #103, #177 ) ) ;
#349 = CARTESIAN_POINT ( 'NONE',  ( -12.00000000000000000, 0.000000000000000000, 0.000000000000000000 ) ) ;
#350 = EDGE_CURVE ( 'NONE', #353, #10, #283, .T. ) ;
#351 = ORIENTED_EDGE ( 'NONE', *, *, #281, .T. ) ;
#352 = CARTESIAN_POINT ( 'NONE',  ( 9.999999999999998224, 0.000000000000000000, 0.000000000000000000 ) ) ;
#353 = VERTEX_POINT ( 'NONE', #160 ) ;
#354 = CIRCLE ( 'NONE', #170, 4.000000000000000888 ) ;
#355 = AXIS2_PLACEMENT_3D ( 'NONE', #312, #62, #336 ) ;
#356 = CARTESIAN_POINT ( 'NONE',  ( 8.999999999999998224, 0.000000000000000000, -1.650000000000000133 ) ) ;
#357 = EDGE_CURVE ( 'NONE', #233, #169, #48, .T. ) ;
#358 = CARTESIAN_POINT ( 'NONE',  ( -13.70809924354782972, 0.000000000000000000, -1.500000000000000222 ) ) ;
#359 = VERTEX_POINT ( 'NONE', #189 ) ;
#360 = CC_DESIGN_DATE_AND_TIME_ASSIGNMENT ( #31, #98, ( #330 ) ) ;
#361 = CARTESIAN_POINT ( 'NONE',  ( -9.999999999999998224, 0.000000000000000000, 0.000000000000000000 ) ) ;
#362 = ORIENTED_EDGE ( 'NONE', *, *, #179, .T. ) ;
#363 = CIRCLE ( 'NONE', #324, 1.500000000000000222 ) ;
#364 = CARTESIAN_POINT ( 'NONE',  ( 8.999999999999998224, 0.000000000000000000, 0.000000000000000000 ) ) ;
#365 = APPROVAL_PERSON_ORGANIZATION ( #191, #80, #334 ) ;
#366 = ADVANCED_FACE ( 'NONE', ( #64, #12 ), #156, .F. ) ;
#367 = APPROVAL_STATUS ( 'not_yet_approved' ) ;
#368 = SPHERICAL_SURFACE ( 'NONE', #118, 4.000000000000000000 ) ;
#369 = PERSON_AND_ORGANIZATION_ROLE ( 'creator' ) ;
#370 = DIRECTION ( 'NONE',  ( -1.000000000000000000, -0.000000000000000000, -0.000000000000000000 ) ) ;
#371 = COORDINATED_UNIVERSAL_TIME_OFFSET ( 3, 0, .BEHIND. ) ;
#372 = DIRECTION ( 'NONE',  ( 1.000000000000000000, -0.000000000000000000, -0.000000000000000000 ) ) ;
#373 = VECTOR ( 'NONE', #393, 1000.000000000000114 ) ;
#374 = APPROVAL_PERSON_ORGANIZATION ( #331, #288, #159 ) ;
#375 = ADVANCED_FACE ( 'NONE', ( #187 ), #126, .T. ) ;
#376 = DIRECTION ( 'NONE',  ( 0.000000000000000000, 0.000000000000000000, -1.000000000000000000 ) ) ;
#377 = DATE_TIME_ROLE ( 'classification_date' ) ;
#378 = DIRECTION ( 'NONE',  ( 1.000000000000000000, 0.000000000000000000, 0.000000000000000000 ) ) ;
#379 = CIRCLE ( 'NONE', #263, 1.500000000000000222 ) ;
#380 = ORIENTED_EDGE ( 'NONE', *, *, #115, .T. ) ;
#381 = VERTEX_POINT ( 'NONE', #277 ) ;
#382 = VECTOR ( 'NONE', #372, 1000.000000000000000 ) ;
#383 = EDGE_LOOP ( 'NONE', ( #79, #72, #201, #140 ) ) ;
#384 = LOCAL_TIME ( 13, 41, 33.00000000000000000, #309 ) ;
#385 = ADVANCED_FACE ( 'NONE', ( #222 ), #5, .F. ) ;
#386 = DESIGN_CONTEXT ( 'detailed design', #198, 'design' ) ;
#387 = CC_DESIGN_PERSON_AND_ORGANIZATION_ASSIGNMENT ( #185, #161, ( #321 ) ) ;
#388 = ORIENTED_EDGE ( 'NONE', *, *, #61, .F. ) ;
#389 = DIRECTION ( 'NONE',  ( 0.000000000000000000, 0.000000000000000000, 1.000000000000000000 ) ) ;
#390 = ORIENTED_EDGE ( 'NONE', *, *, #226, .T. ) ;
#391 = CIRCLE ( 'NONE', #41, 1.500000000000000222 ) ;
#392 = SECURITY_CLASSIFICATION ( '', '', #65 ) ;
#393 = DIRECTION ( 'NONE',  ( 0.7071067811865456854, 8.659560562354957510E-17, 0.7071067811865493491 ) ) ;
#394 = CC_DESIGN_PERSON_AND_ORGANIZATION_ASSIGNMENT ( #243, #301, ( #392 ) ) ;
#395 = EDGE_LOOP ( 'NONE', ( #165, #254, #292, #228 ) ) ;
#396 = CARTESIAN_POINT ( 'NONE',  ( -9.999999999999998224, 0.000000000000000000, -3.851859888774471706E-31 ) ) ;
#397 = VERTEX_POINT ( 'NONE', #71 ) ;
#398 = DIRECTION ( 'NONE',  ( 0.000000000000000000, -1.000000000000000000, -1.224646799147353207E-16 ) ) ;
#399 = VECTOR ( 'NONE', #63, 1000.000000000000000 ) ;
#400 = CC_DESIGN_APPROVAL ( #288, ( #139 ) ) ;
#401 = DIRECTION ( 'NONE',  ( 0.000000000000000000, 0.000000000000000000, -1.000000000000000000 ) ) ;
ENDSEC;
END-ISO-10303-21;
