ISO-10303-21;
HEADER;
FILE_DESCRIPTION (( 'STEP AP203' ),
    '1' );
FILE_NAME ('barra_agitador_cap.STEP',
    '2026-07-30T16:41:18',
    ( '' ),
    ( '' ),
    'SwSTEP 2.0',
    'SolidWorks 2026',
    '' );
FILE_SCHEMA (( 'CONFIG_CONTROL_DESIGN' ));
ENDSEC;

DATA;
#1 = SHAPE_DEFINITION_REPRESENTATION ( #166, #163 ) ;
#2 = COORDINATED_UNIVERSAL_TIME_OFFSET ( 3, 0, .BEHIND. ) ;
#3 = ORIENTED_EDGE ( 'NONE', *, *, #74, .T. ) ;
#4 = EDGE_CURVE ( 'NONE', #86, #26, #136, .T. ) ;
#5 = AXIS2_PLACEMENT_3D ( 'NONE', #79, #133, #95 ) ;
#6 = ORIENTED_EDGE ( 'NONE', *, *, #78, .T. ) ;
#7 = VERTEX_POINT ( 'NONE', #185 ) ;
#8 = DIRECTION ( 'NONE',  ( -0.000000000000000000, -0.000000000000000000, -1.000000000000000000 ) ) ;
#9 = DIRECTION ( 'NONE',  ( -1.000000000000000000, 0.000000000000000000, 0.000000000000000000 ) ) ;
#10 = DIRECTION ( 'NONE',  ( -1.000000000000000000, 0.000000000000000000, 0.000000000000000000 ) ) ;
#11 = PRODUCT ( 'barra_agitador_cap', 'barra_agitador_cap', '', ( #149 ) ) ;
#12 = CIRCLE ( 'NONE', #31, 4.000000000000000000 ) ;
#13 = CARTESIAN_POINT ( 'NONE',  ( 0.000000000000000000, 0.000000000000000000, 0.000000000000000000 ) ) ;
#14 = DIRECTION ( 'NONE',  ( 1.000000000000000000, 0.000000000000000000, 0.000000000000000000 ) ) ;
#15 = ADVANCED_FACE ( 'NONE', ( #165 ), #106, .T. ) ;
#16 = DIRECTION ( 'NONE',  ( -0.000000000000000000, -0.000000000000000000, -1.000000000000000000 ) ) ;
#17 = VECTOR ( 'NONE', #187, 1000.000000000000000 ) ;
#18 = PERSON_AND_ORGANIZATION ( #49, #65 ) ;
#19 = PERSON_AND_ORGANIZATION ( #49, #65 ) ;
#20 = SECURITY_CLASSIFICATION_LEVEL ( 'unclassified' ) ;
#21 = APPROVAL_DATE_TIME ( #100, #139 ) ;
#22 = CC_DESIGN_PERSON_AND_ORGANIZATION_ASSIGNMENT ( #18, #51, ( #11 ) ) ;
#23 = CARTESIAN_POINT ( 'NONE',  ( 1.650000000000000133, 2.020667218593133001E-16, 0.000000000000000000 ) ) ;
#24 = EDGE_CURVE ( 'NONE', #7, #81, #68, .T. ) ;
#25 = DIRECTION ( 'NONE',  ( -0.000000000000000000, -0.000000000000000000, -1.000000000000000000 ) ) ;
#26 = VERTEX_POINT ( 'NONE', #23 ) ;
#27 = DIRECTION ( 'NONE',  ( 0.000000000000000000, 1.000000000000000000, 0.000000000000000000 ) ) ;
#28 = AXIS2_PLACEMENT_3D ( 'NONE', #131, #16, #93 ) ;
#29 = CARTESIAN_POINT ( 'NONE',  ( 1.650000000000000133, 2.020667218593133001E-16, -1.799999999999999600 ) ) ;
#30 =( LENGTH_UNIT ( ) NAMED_UNIT ( * ) SI_UNIT ( .MILLI., .METRE. ) );
#31 = AXIS2_PLACEMENT_3D ( 'NONE', #48, #110, #167 ) ;
#32 = ADVANCED_FACE ( 'NONE', ( #127 ), #124, .T. ) ;
#33 = DIRECTION ( 'NONE',  ( 0.000000000000000000, 0.000000000000000000, 1.000000000000000000 ) ) ;
#34 = DIRECTION ( 'NONE',  ( -0.000000000000000000, -0.000000000000000000, -1.000000000000000000 ) ) ;
#35 = CALENDAR_DATE ( 2026, 30, 7 ) ;
#36 = LOCAL_TIME ( 13, 41, 18.00000000000000000, #55 ) ;
#37 = ORIENTED_EDGE ( 'NONE', *, *, #204, .F. ) ;
#38 = DATE_TIME_ROLE ( 'classification_date' ) ;
#39 = ADVANCED_FACE ( 'NONE', ( #164 ), #123, .T. ) ;
#40 = ORIENTED_EDGE ( 'NONE', *, *, #74, .F. ) ;
#41 = PERSON_AND_ORGANIZATION_ROLE ( 'creator' ) ;
#42 = EDGE_LOOP ( 'NONE', ( #45, #6, #126 ) ) ;
#43 = AXIS2_PLACEMENT_3D ( 'NONE', #107, #9, #160 ) ;
#44 = DIRECTION ( 'NONE',  ( -0.000000000000000000, 0.000000000000000000, -1.000000000000000000 ) ) ;
#45 = ORIENTED_EDGE ( 'NONE', *, *, #218, .F. ) ;
#46 = CARTESIAN_POINT ( 'NONE',  ( 0.000000000000000000, 4.000000000000000000, 0.000000000000000000 ) ) ;
#47 = AXIS2_PLACEMENT_3D ( 'NONE', #87, #145, #90 ) ;
#48 = CARTESIAN_POINT ( 'NONE',  ( 0.000000000000000000, 0.000000000000000000, 0.000000000000000000 ) ) ;
#49 = PERSON ( 'UNSPECIFIED', 'UNSPECIFIED', 'UNSPECIFIED', ('UNSPECIFIED'), ('UNSPECIFIED'), ('UNSPECIFIED') ) ;
#50 =( NAMED_UNIT ( * ) SI_UNIT ( $, .STERADIAN. ) SOLID_ANGLE_UNIT ( ) );
#51 = PERSON_AND_ORGANIZATION_ROLE ( 'design_owner' ) ;
#52 = CARTESIAN_POINT ( 'NONE',  ( 0.000000000000000000, 0.000000000000000000, 0.000000000000000000 ) ) ;
#53 = VERTEX_POINT ( 'NONE', #222 ) ;
#54 = AXIS2_PLACEMENT_3D ( 'NONE', #63, #116, #134 ) ;
#55 = COORDINATED_UNIVERSAL_TIME_OFFSET ( 3, 0, .BEHIND. ) ;
#56 = VERTEX_POINT ( 'NONE', #105 ) ;
#57 = CALENDAR_DATE ( 2026, 30, 7 ) ;
#58 = CARTESIAN_POINT ( 'NONE',  ( 1.650000000000000133, 2.020667218593133001E-16, -30.00000000000000000 ) ) ;
#59 = APPROVAL ( #83, 'UNSPECIFIED' ) ;
#60 = APPROVAL_PERSON_ORGANIZATION ( #228, #184, #211 ) ;
#61 = CARTESIAN_POINT ( 'NONE',  ( 0.000000000000000000, 0.000000000000000000, 0.000000000000000000 ) ) ;
#62 = FACE_BOUND ( 'NONE', #128, .T. ) ;
#63 = CARTESIAN_POINT ( 'NONE',  ( 0.000000000000000000, 4.000000000000000000, -1.530808498934191571E-16 ) ) ;
#64 = LINE ( 'NONE', #151, #17 ) ;
#65 = ORGANIZATION ( 'UNSPECIFIED', 'UNSPECIFIED', '' ) ;
#66 = APPROVAL_STATUS ( 'not_yet_approved' ) ;
#67 = ORIENTED_EDGE ( 'NONE', *, *, #192, .T. ) ;
#68 = CIRCLE ( 'NONE', #113, 4.000000000000000000 ) ;
#69 = ORIENTED_EDGE ( 'NONE', *, *, #94, .T. ) ;
#70 = EDGE_LOOP ( 'NONE', ( #141, #3, #109, #37 ) ) ;
#71 = APPROVAL_PERSON_ORGANIZATION ( #19, #59, #154 ) ;
#72 = CLOSED_SHELL ( 'NONE', ( #32, #111, #15, #114, #148, #39 ) ) ;
#73 = CARTESIAN_POINT ( 'NONE',  ( 0.000000000000000000, 1.650000000000000133, -1.800000000000000488 ) ) ;
#74 = EDGE_CURVE ( 'NONE', #26, #86, #170, .T. ) ;
#75 = DIRECTION ( 'NONE',  ( 1.000000000000000000, 0.000000000000000000, 0.000000000000000000 ) ) ;
#76 = EDGE_LOOP ( 'NONE', ( #98, #118 ) ) ;
#77 = DIRECTION ( 'NONE',  ( 1.000000000000000000, 1.224646799147353207E-16, -0.000000000000000000 ) ) ;
#78 = EDGE_CURVE ( 'NONE', #56, #81, #227, .T. ) ;
#79 = CARTESIAN_POINT ( 'NONE',  ( 0.000000000000000000, 0.000000000000000000, -1.799999999999999600 ) ) ;
#80 = PRODUCT_DEFINITION_FORMATION_WITH_SPECIFIED_SOURCE ( 'ANY', '', #11, .NOT_KNOWN. ) ;
#81 = VERTEX_POINT ( 'NONE', #46 ) ;
#82 = DATE_TIME_ROLE ( 'creation_date' ) ;
#83 = APPROVAL_STATUS ( 'not_yet_approved' ) ;
#84 = CC_DESIGN_SECURITY_CLASSIFICATION ( #142, ( #80 ) ) ;
#85 = FACE_OUTER_BOUND ( 'NONE', #101, .T. ) ;
#86 = VERTEX_POINT ( 'NONE', #223 ) ;
#87 = CARTESIAN_POINT ( 'NONE',  ( 0.000000000000000000, 0.000000000000000000, 0.000000000000000000 ) ) ;
#88 = AXIS2_PLACEMENT_3D ( 'NONE', #183, #75, #27 ) ;
#89 = CARTESIAN_POINT ( 'NONE',  ( 0.000000000000000000, 0.000000000000000000, -30.00000000000000000 ) ) ;
#90 = DIRECTION ( 'NONE',  ( -1.000000000000000000, 0.000000000000000000, 0.000000000000000000 ) ) ;
#91 = CC_DESIGN_DATE_AND_TIME_ASSIGNMENT ( #135, #82, ( #157 ) ) ;
#92 = DIRECTION ( 'NONE',  ( 0.000000000000000000, 1.000000000000000000, 0.000000000000000000 ) ) ;
#93 = DIRECTION ( 'NONE',  ( -1.000000000000000000, 0.000000000000000000, 0.000000000000000000 ) ) ;
#94 = EDGE_CURVE ( 'NONE', #26, #180, #219, .T. ) ;
#95 = DIRECTION ( 'NONE',  ( -1.000000000000000000, 0.000000000000000000, 0.000000000000000000 ) ) ;
#96 = AXIS2_PLACEMENT_3D ( 'NONE', #73, #44, #10 ) ;
#97 = ORIENTED_EDGE ( 'NONE', *, *, #24, .T. ) ;
#98 = ORIENTED_EDGE ( 'NONE', *, *, #200, .T. ) ;
#99 = CIRCLE ( 'NONE', #217, 4.000000000000000000 ) ;
#100 = DATE_AND_TIME ( #231, #159 ) ;
#101 = EDGE_LOOP ( 'NONE', ( #122, #138, #178 ) ) ;
#102 = DESIGN_CONTEXT ( 'detailed design', #108, 'design' ) ;
#103 = APPLICATION_CONTEXT ( 'configuration controlled 3d designs of mechanical parts and assemblies' ) ;
#104 = CIRCLE ( 'NONE', #5, 1.650000000000000133 ) ;
#105 = CARTESIAN_POINT ( 'NONE',  ( 0.000000000000000000, 2.449293598294706414E-16, 4.000000000000000000 ) ) ;
#106 = SPHERICAL_SURFACE ( 'NONE', #88, 4.000000000000000000 ) ;
#107 = CARTESIAN_POINT ( 'NONE',  ( 0.000000000000000000, 0.000000000000000000, 0.000000000000000000 ) ) ;
#108 = APPLICATION_CONTEXT ( 'configuration controlled 3d designs of mechanical parts and assemblies' ) ;
#109 = ORIENTED_EDGE ( 'NONE', *, *, #224, .T. ) ;
#110 = DIRECTION ( 'NONE',  ( -0.000000000000000000, -0.000000000000000000, -1.000000000000000000 ) ) ;
#111 = ADVANCED_FACE ( 'NONE', ( #85 ), #188, .T. ) ;
#112 = DIRECTION ( 'NONE',  ( -1.000000000000000000, 0.000000000000000000, 0.000000000000000000 ) ) ;
#113 = AXIS2_PLACEMENT_3D ( 'NONE', #61, #220, #161 ) ;
#114 = ADVANCED_FACE ( 'NONE', ( #152, #62 ), #115, .T. ) ;
#115 = PLANE ( 'NONE',  #54 ) ;
#116 = DIRECTION ( 'NONE',  ( -0.000000000000000000, 0.000000000000000000, -1.000000000000000000 ) ) ;
#117 = CC_DESIGN_DATE_AND_TIME_ASSIGNMENT ( #198, #38, ( #142 ) ) ;
#118 = ORIENTED_EDGE ( 'NONE', *, *, #204, .T. ) ;
#119 = PERSON_AND_ORGANIZATION ( #49, #65 ) ;
#120 = CIRCLE ( 'NONE', #28, 1.650000000000000133 ) ;
#121 = PERSON_AND_ORGANIZATION_ROLE ( 'classification_officer' ) ;
#122 = ORIENTED_EDGE ( 'NONE', *, *, #78, .F. ) ;
#123 = PLANE ( 'NONE',  #96 ) ;
#124 = CYLINDRICAL_SURFACE ( 'NONE', #146, 1.650000000000000133 ) ;
#125 = CC_DESIGN_APPROVAL ( #184, ( #157 ) ) ;
#126 = ORIENTED_EDGE ( 'NONE', *, *, #24, .F. ) ;
#127 = FACE_OUTER_BOUND ( 'NONE', #197, .T. ) ;
#128 = EDGE_LOOP ( 'NONE', ( #147, #40 ) ) ;
#129 = AXIS2_PLACEMENT_3D ( 'NONE', #182, #25, #205 ) ;
#130 = DIRECTION ( 'NONE',  ( 1.000000000000000000, 0.000000000000000000, 0.000000000000000000 ) ) ;
#131 = CARTESIAN_POINT ( 'NONE',  ( 0.000000000000000000, 0.000000000000000000, -1.799999999999999600 ) ) ;
#132 = VECTOR ( 'NONE', #199, 1000.000000000000000 ) ;
#133 = DIRECTION ( 'NONE',  ( -0.000000000000000000, -0.000000000000000000, -1.000000000000000000 ) ) ;
#134 = DIRECTION ( 'NONE',  ( -1.000000000000000000, 0.000000000000000000, 0.000000000000000000 ) ) ;
#135 = DATE_AND_TIME ( #137, #186 ) ;
#136 = CIRCLE ( 'NONE', #47, 1.650000000000000133 ) ;
#137 = CALENDAR_DATE ( 2026, 30, 7 ) ;
#138 = ORIENTED_EDGE ( 'NONE', *, *, #218, .T. ) ;
#139 = APPROVAL ( #230, 'UNSPECIFIED' ) ;
#140 = PERSON_AND_ORGANIZATION ( #49, #65 ) ;
#141 = ORIENTED_EDGE ( 'NONE', *, *, #94, .F. ) ;
#142 = SECURITY_CLASSIFICATION ( '', '', #20 ) ;
#143 = EDGE_LOOP ( 'NONE', ( #67, #97 ) ) ;
#144 = CC_DESIGN_PERSON_AND_ORGANIZATION_ASSIGNMENT ( #140, #196, ( #80 ) ) ;
#145 = DIRECTION ( 'NONE',  ( -0.000000000000000000, -0.000000000000000000, -1.000000000000000000 ) ) ;
#146 = AXIS2_PLACEMENT_3D ( 'NONE', #89, #8, #201 ) ;
#147 = ORIENTED_EDGE ( 'NONE', *, *, #4, .F. ) ;
#148 = ADVANCED_FACE ( 'NONE', ( #225 ), #207, .T. ) ;
#149 = MECHANICAL_CONTEXT ( 'NONE', #103, 'mechanical' ) ;
#150 = LOCAL_TIME ( 13, 41, 18.00000000000000000, #191 ) ;
#151 = CARTESIAN_POINT ( 'NONE',  ( -1.650000000000000133, 0.000000000000000000, -30.00000000000000000 ) ) ;
#152 = FACE_OUTER_BOUND ( 'NONE', #143, .T. ) ;
#153 = APPLICATION_PROTOCOL_DEFINITION ( 'international standard', 'config_control_design', 1994, #108 ) ;
#154 = APPROVAL_ROLE ( '' ) ;
#155 = PERSON_AND_ORGANIZATION ( #49, #65 ) ;
#156 = AXIS2_PLACEMENT_3D ( 'NONE', #168, #34, #112 ) ;
#157 = PRODUCT_DEFINITION ( 'UNKNOWN', '', #80, #102 ) ;
#158 = COORDINATED_UNIVERSAL_TIME_OFFSET ( 3, 0, .BEHIND. ) ;
#159 = LOCAL_TIME ( 13, 41, 18.00000000000000000, #158 ) ;
#160 = DIRECTION ( 'NONE',  ( 0.000000000000000000, 0.000000000000000000, 1.000000000000000000 ) ) ;
#161 = DIRECTION ( 'NONE',  ( -1.000000000000000000, 0.000000000000000000, 0.000000000000000000 ) ) ;
#162 = AXIS2_PLACEMENT_3D ( 'NONE', #190, #33, #14 ) ;
#163 = ADVANCED_BREP_SHAPE_REPRESENTATION ( 'barra_agitador_cap', ( #215, #162 ), #193 ) ;
#164 = FACE_OUTER_BOUND ( 'NONE', #76, .T. ) ;
#165 = FACE_OUTER_BOUND ( 'NONE', #42, .T. ) ;
#166 = PRODUCT_DEFINITION_SHAPE ( 'NONE', 'NONE',  #157 ) ;
#167 = DIRECTION ( 'NONE',  ( -1.000000000000000000, 0.000000000000000000, 0.000000000000000000 ) ) ;
#168 = CARTESIAN_POINT ( 'NONE',  ( 0.000000000000000000, 0.000000000000000000, -30.00000000000000000 ) ) ;
#169 = DIRECTION ( 'NONE',  ( -1.224646799147353207E-16, 1.000000000000000000, 0.000000000000000000 ) ) ;
#170 = CIRCLE ( 'NONE', #129, 1.650000000000000133 ) ;
#171 = DATE_AND_TIME ( #35, #150 ) ;
#172 = UNCERTAINTY_MEASURE_WITH_UNIT (LENGTH_MEASURE( 1.000000000000000082E-05 ), #30, 'distance_accuracy_value', 'NONE');
#173 = CC_DESIGN_PERSON_AND_ORGANIZATION_ASSIGNMENT ( #179, #41, ( #80 ) ) ;
#174 = COORDINATED_UNIVERSAL_TIME_OFFSET ( 3, 0, .BEHIND. ) ;
#175 = CALENDAR_DATE ( 2026, 30, 7 ) ;
#176 = ORIENTED_EDGE ( 'NONE', *, *, #224, .F. ) ;
#177 = PERSON_AND_ORGANIZATION_ROLE ( 'creator' ) ;
#178 = ORIENTED_EDGE ( 'NONE', *, *, #192, .F. ) ;
#179 = PERSON_AND_ORGANIZATION ( #49, #65 ) ;
#180 = VERTEX_POINT ( 'NONE', #29 ) ;
#181 = CC_DESIGN_APPROVAL ( #59, ( #80 ) ) ;
#182 = CARTESIAN_POINT ( 'NONE',  ( 0.000000000000000000, 0.000000000000000000, 0.000000000000000000 ) ) ;
#183 = CARTESIAN_POINT ( 'NONE',  ( 0.000000000000000000, 0.000000000000000000, 0.000000000000000000 ) ) ;
#184 = APPROVAL ( #66, 'UNSPECIFIED' ) ;
#185 = CARTESIAN_POINT ( 'NONE',  ( 4.898587196589412829E-16, -4.000000000000000000, 0.000000000000000000 ) ) ;
#186 = LOCAL_TIME ( 13, 41, 18.00000000000000000, #2 ) ;
#187 = DIRECTION ( 'NONE',  ( -0.000000000000000000, -0.000000000000000000, -1.000000000000000000 ) ) ;
#188 = SPHERICAL_SURFACE ( 'NONE', #202, 4.000000000000000000 ) ;
#189 = LOCAL_TIME ( 13, 41, 18.00000000000000000, #174 ) ;
#190 = CARTESIAN_POINT ( 'NONE',  ( 0.000000000000000000, 0.000000000000000000, 0.000000000000000000 ) ) ;
#191 = COORDINATED_UNIVERSAL_TIME_OFFSET ( 3, 0, .BEHIND. ) ;
#192 = EDGE_CURVE ( 'NONE', #81, #7, #12, .T. ) ;
#193 =( GEOMETRIC_REPRESENTATION_CONTEXT ( 3 ) GLOBAL_UNCERTAINTY_ASSIGNED_CONTEXT ( ( #172 ) ) GLOBAL_UNIT_ASSIGNED_CONTEXT ( ( #30, #209, #50 ) ) REPRESENTATION_CONTEXT ( 'NONE', 'WORKASPACE' ) );
#194 = CC_DESIGN_PERSON_AND_ORGANIZATION_ASSIGNMENT ( #212, #177, ( #157 ) ) ;
#195 = APPROVAL_DATE_TIME ( #171, #184 ) ;
#196 = PERSON_AND_ORGANIZATION_ROLE ( 'design_supplier' ) ;
#197 = EDGE_LOOP ( 'NONE', ( #203, #69, #221, #176 ) ) ;
#198 = DATE_AND_TIME ( #57, #36 ) ;
#199 = DIRECTION ( 'NONE',  ( -0.000000000000000000, -0.000000000000000000, -1.000000000000000000 ) ) ;
#200 = EDGE_CURVE ( 'NONE', #53, #180, #120, .T. ) ;
#201 = DIRECTION ( 'NONE',  ( -1.000000000000000000, 0.000000000000000000, 0.000000000000000000 ) ) ;
#202 = AXIS2_PLACEMENT_3D ( 'NONE', #52, #130, #92 ) ;
#203 = ORIENTED_EDGE ( 'NONE', *, *, #4, .T. ) ;
#204 = EDGE_CURVE ( 'NONE', #180, #53, #104, .T. ) ;
#205 = DIRECTION ( 'NONE',  ( -1.000000000000000000, 0.000000000000000000, 0.000000000000000000 ) ) ;
#206 = APPROVAL_PERSON_ORGANIZATION ( #119, #139, #216 ) ;
#207 = CYLINDRICAL_SURFACE ( 'NONE', #156, 1.650000000000000133 ) ;
#208 = CC_DESIGN_PERSON_AND_ORGANIZATION_ASSIGNMENT ( #155, #121, ( #142 ) ) ;
#209 =( NAMED_UNIT ( * ) PLANE_ANGLE_UNIT ( ) SI_UNIT ( $, .RADIAN. ) );
#210 = PRODUCT_RELATED_PRODUCT_CATEGORY ( 'detail', '', ( #11 ) ) ;
#211 = APPROVAL_ROLE ( '' ) ;
#212 = PERSON_AND_ORGANIZATION ( #49, #65 ) ;
#213 = CC_DESIGN_APPROVAL ( #139, ( #142 ) ) ;
#214 = APPROVAL_DATE_TIME ( #229, #59 ) ;
#215 = MANIFOLD_SOLID_BREP ( 'Revoluci\X2\00f3\X0\n1', #72 ) ;
#216 = APPROVAL_ROLE ( '' ) ;
#217 = AXIS2_PLACEMENT_3D ( 'NONE', #13, #77, #169 ) ;
#218 = EDGE_CURVE ( 'NONE', #56, #7, #99, .T. ) ;
#219 = LINE ( 'NONE', #58, #132 ) ;
#220 = DIRECTION ( 'NONE',  ( -0.000000000000000000, -0.000000000000000000, -1.000000000000000000 ) ) ;
#221 = ORIENTED_EDGE ( 'NONE', *, *, #200, .F. ) ;
#222 = CARTESIAN_POINT ( 'NONE',  ( -1.650000000000000133, 0.000000000000000000, -1.799999999999999600 ) ) ;
#223 = CARTESIAN_POINT ( 'NONE',  ( -1.650000000000000133, 0.000000000000000000, 0.000000000000000000 ) ) ;
#224 = EDGE_CURVE ( 'NONE', #86, #53, #64, .T. ) ;
#225 = FACE_OUTER_BOUND ( 'NONE', #70, .T. ) ;
#226 = APPLICATION_PROTOCOL_DEFINITION ( 'international standard', 'config_control_design', 1994, #103 ) ;
#227 = CIRCLE ( 'NONE', #43, 4.000000000000000000 ) ;
#228 = PERSON_AND_ORGANIZATION ( #49, #65 ) ;
#229 = DATE_AND_TIME ( #175, #189 ) ;
#230 = APPROVAL_STATUS ( 'not_yet_approved' ) ;
#231 = CALENDAR_DATE ( 2026, 30, 7 ) ;
ENDSEC;
END-ISO-10303-21;
